<svg width="50" height="50" viewBox="0 0 50 50" fill="none" xmlns="http://www.w3.org/2000/svg">
<path d="M29.9487 2.11813C28.5445 2.8291 26.804 3.31433 25.4913 4.51054C22.4891 7.24471 20.6955 10.4029 18.4593 14.0485C17.1898 16.1188 15.643 17.9325 13.8189 19.4894C11.904 21.1223 9.52744 22.5696 7.35084 24.0633C5.60616 25.2595 4.1785 26.6498 3.12531 28.5591C2.47637 29.7342 2.33595 30.9346 2.12105 32.2806C2.00474 33.0232 1.98772 33.6554 2.06999 34.1772C2.39056 36.2067 2.96502 38.135 3.79339 39.962C4.88985 42.3825 6.58063 44.2398 8.86573 45.5337C9.21325 45.7307 10.0601 46.142 11.4062 46.7679C12.4572 47.256 13.7721 47.3997 14.4998 47.4995C16.7828 47.8117 18.9742 47.0169 20.7508 46.5295C22.287 46.1097 24.4062 45.9658 25.9998 45.9995C27.1679 46.0248 28.0891 46.5042 29.4168 46.6878C29.9572 46.7623 30.4437 46.8453 30.8764 46.9367C33.5757 47.5063 35.3133 47.8664 36.0891 48.0169C36.2524 48.0489 36.9998 47.9995 37.4998 47.9995H37.9998C37.9998 47.9995 38.7647 47.736 39.0381 47.616C40.5062 46.9719 41.4352 46.5091 41.8253 46.2278C43.9657 44.6793 45.5494 42.7145 46.5764 40.3333C47.2721 38.7194 47.8955 36.9198 48.0466 35.2067C48.0579 35.0755 48.0464 34.9435 48.0125 34.8164C47.7416 33.8375 47.5359 33.0148 47.3955 32.3481C46.9487 30.2384 46.1211 28.4135 45.1019 26.4283C44.6097 25.469 44.043 24.6603 43.4019 24.0021C42.4416 23.0148 41.47 22.0436 40.487 21.0886C40.1352 20.7468 39.8941 20.3889 39.7636 20.0148C39.5111 19.2946 39.2395 18.3164 38.9487 17.0802C38.6423 15.7778 38.9998 14.4995 38.9998 13.4995C38.9998 12.8168 38.9998 12.7618 38.9998 12.4995C38.7913 11.8089 38.782 11.1111 38.7764 10.4852C38.7749 10.3522 38.8131 9.90908 38.7764 9.78026C38.7764 9.32611 38.7764 9.19712 38.7218 8.75843C38.7431 8.43072 38.5246 8.07875 38.3657 7.79324C37.7629 6.71869 37.4608 6.18002 37.4594 6.1772C37.3917 6.04574 37.3042 5.92484 37.1998 5.81855C36.1047 4.6976 35.2636 3.86848 34.6764 3.33121C34.3033 2.99225 33.8416 2.74612 33.2913 2.59281C32.4828 2.36778 31.8374 2.16384 31.3551 1.981C30.9274 1.81855 30.4232 1.87973 29.9487 2.11813ZM31.0657 8.82277C31.0664 8.81501 31.0656 8.8072 31.0632 8.79976C31.0609 8.79233 31.0571 8.78543 31.052 8.77946C31.047 8.77348 31.0408 8.76855 31.0339 8.76494C31.0269 8.76133 31.0193 8.75912 31.0115 8.75843C31.0037 8.75773 30.9958 8.75857 30.9883 8.7609C30.9808 8.76323 30.9738 8.767 30.9678 8.772C30.9618 8.77699 30.9568 8.78312 30.9532 8.79002C30.9495 8.79692 30.9473 8.80447 30.9466 8.81222C30.5693 10.5914 30.3714 12.3382 30.353 14.0527C30.3528 14.0649 30.3497 14.0769 30.3441 14.0878C30.3385 14.0987 30.3305 14.1081 30.3206 14.1155C30.3108 14.1228 30.2994 14.1278 30.2873 14.1301C30.2752 14.1324 30.2627 14.1319 30.2508 14.1287C29.1686 13.8249 28.2352 13.2813 27.4508 12.4979C25.0296 10.0759 25.6785 6.39872 28.2657 4.40083C28.2889 4.38307 28.3158 4.37087 28.3445 4.36518C28.3732 4.35948 28.4028 4.36045 28.431 4.36802C28.4593 4.37558 28.4854 4.38953 28.5073 4.40876C28.5292 4.428 28.5463 4.452 28.5572 4.47889C28.9742 5.50421 29.5395 6.52319 30.253 7.53585C30.2617 7.54846 30.2745 7.55775 30.2892 7.5622C30.304 7.56666 30.3198 7.56601 30.3342 7.56038C30.3485 7.55474 30.3605 7.54444 30.3682 7.53117C30.3758 7.5179 30.3787 7.50244 30.3764 7.48733C30.3551 7.34668 30.2891 7.14837 30.1785 6.89239C29.7799 5.97959 29.3331 5.14063 28.8381 4.37551C28.8171 4.34329 28.8031 4.30709 28.797 4.26921C28.7909 4.23133 28.7928 4.1926 28.8026 4.15549C28.8124 4.11838 28.8299 4.0837 28.8539 4.05366C28.878 4.02362 28.9081 3.99887 28.9423 3.981C29.8601 3.49436 30.8473 3.30167 31.904 3.40294C33.8118 3.58438 35.2211 4.50561 36.1317 6.16665C36.1984 6.28902 36.2352 6.42404 36.2423 6.57172C36.2448 6.63014 36.2256 6.68749 36.1885 6.73323C36.1514 6.77898 36.0987 6.81002 36.0402 6.82066C34.7523 7.04851 33.5203 7.39872 32.3445 7.8713C32.3274 7.87833 32.3135 7.89124 32.3052 7.90765C32.297 7.92406 32.2951 7.94287 32.2997 7.9606C32.3044 7.97833 32.3154 7.99379 32.3306 8.00413C32.3459 8.01447 32.3644 8.019 32.3828 8.01686C33.6154 7.86075 34.8679 7.5457 36.1402 7.07172C36.1688 7.06134 36.1997 7.05841 36.2302 7.0632C36.2607 7.06799 36.2897 7.08035 36.3147 7.09914C36.6679 7.37059 36.8537 7.64134 36.8721 7.91138C37.0679 10.7707 35.9246 12.789 33.4423 13.9662C32.6054 14.3614 31.6601 14.4388 30.6062 14.1983C30.5738 14.1912 30.5455 14.1717 30.5276 14.144C30.5096 14.1164 30.5035 14.0828 30.5104 14.0506C30.9274 12.1406 31.1125 10.398 31.0657 8.82277ZM26.4232 20.5633C27.3636 22.4015 28.4182 24.1427 29.587 25.7869C29.9594 26.3122 29.9338 26.5316 29.67 27.0485C29.4445 27.4958 28.5253 27.7637 28.0402 27.8671C25.4175 28.4254 23.1473 27.8692 21.2296 26.1983C20.5402 25.5991 19.4104 24.4852 19.9083 23.6371C20.0047 23.4712 20.3402 23.2581 20.9147 22.9979C22.5133 22.2693 24.1097 21.3952 25.704 20.3755C25.7187 20.3682 25.7299 20.3555 25.735 20.3401C25.7402 20.3246 25.739 20.3078 25.7317 20.2932C25.7244 20.2787 25.7115 20.2676 25.6959 20.2625C25.6804 20.2573 25.6634 20.2585 25.6487 20.2658C23.6636 20.9915 21.67 22.1413 19.8359 23.2806C19.8148 23.2937 19.7908 23.3019 19.7658 23.3045C19.7407 23.307 19.7152 23.3039 19.6913 23.2953L19.4764 23.2152C19.4485 23.2048 19.418 23.2035 19.3893 23.2115C19.3606 23.2195 19.3352 23.2363 19.3168 23.2595L19.2721 23.3122C19.2579 23.3262 19.2404 23.3363 19.2212 23.3416C19.2019 23.3469 19.1817 23.3472 19.1622 23.3426C19.1428 23.3379 19.125 23.3284 19.1103 23.315C19.0956 23.3016 19.0847 23.2846 19.0785 23.2658C18.3537 21.0408 18.4842 19 19.47 17.1434C20.8019 14.635 23.3211 13.0506 26.2934 13.0759C27.087 13.0844 27.77 13.116 28.2211 13.6856C28.2542 13.7275 28.2749 13.7777 28.281 13.8306C28.287 13.8835 28.278 13.9371 28.2551 13.9852C27.4211 15.7475 26.7232 17.5963 26.1615 19.5316C26.1596 19.5372 26.1594 19.5431 26.1609 19.5487C26.1624 19.5544 26.1656 19.5594 26.17 19.5633L26.2253 19.6097C26.2317 19.6152 26.2393 19.6192 26.2475 19.6213C26.2557 19.6234 26.2644 19.6235 26.2728 19.6217C26.2813 19.6198 26.2892 19.6161 26.2961 19.6107C26.303 19.6053 26.3086 19.5985 26.3125 19.5907C27.165 17.8256 27.8757 15.9965 28.4445 14.1034C28.4593 14.0548 28.484 14.0099 28.517 13.9711C28.55 13.9324 28.5906 13.9009 28.6362 13.8783C28.6819 13.8558 28.7316 13.8428 28.7824 13.8401C28.8333 13.8375 28.8841 13.8452 28.9317 13.8629L30.6211 14.4873C30.6437 14.4957 30.6651 14.5071 30.6849 14.5211C34.1402 17.1645 34.7615 21.7426 32.1423 25.192C31.6487 25.8418 31.2253 26.327 30.3551 26.3143C30.28 26.313 30.2066 26.2913 30.1428 26.2515C30.0791 26.2117 30.0274 26.1554 29.9934 26.0886C29.0317 24.1744 27.8913 22.3129 26.5721 20.5042C26.567 20.4966 26.5597 20.4905 26.551 20.4868C26.5424 20.4831 26.5327 20.4818 26.5232 20.4831L26.4594 20.4937C26.4517 20.4948 26.4445 20.4978 26.4383 20.5023C26.4321 20.5067 26.427 20.5126 26.4235 20.5194C26.4199 20.5262 26.4181 20.5337 26.418 20.5413C26.418 20.5489 26.4197 20.5565 26.4232 20.5633ZM21.7019 41.8945C19.2381 43.9135 15.9594 44.0527 13.0104 42.8903C10.4672 41.8889 8.46006 40.1906 6.98914 37.7953C4.66999 34.0126 4.69978 28.8776 8.36148 25.8797C12.0232 22.8818 17.1125 23.8207 20.4211 26.7953C22.5161 28.6786 23.8196 30.9536 24.3317 33.6202C24.9253 36.711 24.1657 39.8755 21.7019 41.8945ZM41.1253 40.0232C39.9168 41.2257 38.4523 42.109 36.7317 42.673C33.5104 43.7278 30.6544 43.2032 28.1636 41.0991C24.7487 38.2131 25.1253 33.9304 27.6466 30.5295C28.2437 29.7236 28.8331 29.0316 29.4147 28.4536C29.9948 27.8755 30.6906 27.2883 31.5019 26.692C34.9211 24.1793 39.2402 23.7911 42.1636 27.1645C44.2941 29.6273 44.8338 32.4578 43.7828 35.6561C43.2211 37.3636 42.3352 38.8193 41.1253 40.0232Z" fill="white" fill-opacity="0.9"/>
<path d="M28.3704 37.5549C28.6512 37.839 28.9654 38.1119 29.3129 38.3735C29.4378 38.4677 29.4676 38.5816 29.4023 38.7152C29.3243 38.877 29.1874 38.9684 28.9917 38.9895C28.9771 38.9911 28.9631 38.9958 28.9506 39.0033C28.9381 39.0108 28.9274 39.021 28.9193 39.0331C28.9112 39.0451 28.9058 39.0588 28.9036 39.0732C28.9014 39.0875 28.9024 39.1022 28.9066 39.1161C28.9874 39.3756 29.1768 39.4199 29.4151 39.3123C29.9285 39.0788 30.4328 39.0359 30.9278 39.1836C32.4853 39.6477 33.9193 40.0254 35.498 39.5781C35.5576 39.5613 35.621 39.5646 35.6784 39.5876C35.7358 39.6105 35.7839 39.6517 35.8151 39.7047L36.2576 40.4684C36.2828 40.5112 36.3205 40.5454 36.3657 40.5665C36.4109 40.5876 36.4615 40.5946 36.5108 40.5865L36.647 40.5654C36.7048 40.5561 36.7565 40.5245 36.7908 40.4774C36.8251 40.4303 36.8392 40.3717 36.83 40.3144L36.698 39.5169C36.6817 39.4186 36.6896 39.3178 36.7211 39.223C36.7526 39.1282 36.8067 39.0423 36.8789 38.9726C37.3002 38.5704 37.8746 37.9656 38.6023 37.1583C39.398 36.2764 39.8215 35.2089 40.4108 34.0591C40.4874 33.9114 40.6215 33.7356 40.8129 33.5317C40.8352 33.5084 40.862 33.4898 40.8916 33.4771C40.9212 33.4644 40.9531 33.4578 40.9853 33.4578H42.1151C42.1576 33.4592 42.1993 33.4453 42.2323 33.4186C42.2653 33.3919 42.2875 33.3543 42.2948 33.3127C42.302 33.271 42.2939 33.2282 42.2718 33.1921C42.2497 33.156 42.2152 33.129 42.1746 33.1161C41.5136 32.8826 41.1746 32.763 41.1576 32.7574C40.4874 32.5211 40.5874 31.8102 40.6087 31.2216C40.6385 30.3608 40.3888 29.6428 39.8597 29.0675C39.781 28.9824 39.7276 28.8774 39.7054 28.7642C39.6832 28.6509 39.6932 28.534 39.7342 28.4262L39.9449 27.8608C39.9616 27.8172 39.9639 27.7694 39.9513 27.7243C39.9386 27.6791 39.9118 27.639 39.8746 27.6097C39.7087 27.4775 39.5612 27.5007 39.4321 27.6794C38.3427 29.2026 39.8023 29.6287 39.8661 30.8123C39.869 30.8572 39.8697 30.9031 39.8683 30.9494C39.8413 31.6991 39.9321 32.3263 40.1406 32.8313C40.1687 32.8993 40.1793 32.9732 40.1715 33.0465C40.1637 33.1198 40.1378 33.19 40.0959 33.2511C39.3257 34.3713 38.7023 35.8017 37.798 36.7321C36.7924 37.7673 36.069 38.4389 35.6278 38.7469C35.347 38.9424 34.9236 39.0436 34.3576 39.0507C32.6229 39.0746 31.042 38.6294 29.6151 37.7152C29.1115 37.3917 28.8115 37.1991 28.7151 37.1372C28.6585 37.1023 28.591 37.089 28.5253 37.0999C28.4595 37.1107 28.4 37.1449 28.3578 37.196C28.3156 37.2471 28.2936 37.3118 28.2959 37.3778C28.2982 37.4438 28.3247 37.5068 28.3704 37.5549Z" fill="white"/>
<path d="M18.0978 28.1224C17.9715 28.1955 17.8127 28.3741 17.6212 28.6582C16.5772 30.2011 15.9616 31.7419 15.7744 33.2806C15.7618 33.3818 15.7253 33.478 15.668 33.5612C15.5077 33.7904 15.151 33.9881 14.5978 34.154C12.4417 34.7996 10.3694 34.6589 8.38074 33.7321C8.35659 33.7191 8.32851 33.7159 8.30229 33.7232C8.27607 33.7305 8.25371 33.7476 8.23981 33.7712C8.2259 33.7947 8.22151 33.8228 8.22755 33.8496C8.23358 33.8765 8.24957 33.9001 8.27223 33.9156C10.2531 35.3629 12.8254 35.4684 15.1318 34.8798C15.3346 34.8291 15.4921 34.8481 15.6041 34.9367C15.6779 34.993 15.7389 35.1385 15.7871 35.3734C16.1956 37.3397 17.1885 38.9445 18.7658 40.1878C18.9829 40.358 19.1985 40.4416 19.4127 40.4388C19.4503 40.4386 19.487 40.4275 19.5183 40.4069C19.5496 40.3863 19.5743 40.3571 19.5891 40.3229C19.604 40.2887 19.6086 40.2509 19.6022 40.2141C19.5957 40.1774 19.5787 40.1433 19.5531 40.116C18.8609 39.3762 18.2077 38.4775 17.5935 37.4198C15.9424 34.5781 16.8999 31.6498 18.0978 28.8333C18.1744 28.6547 18.2254 28.5506 18.251 28.5211C18.3602 28.3931 18.3751 28.2743 18.2956 28.1646C18.2743 28.1344 18.2421 28.1133 18.2055 28.1055C18.1689 28.0977 18.1305 28.1037 18.0978 28.1224Z" fill="white"/>
<path d="M26 13C21.8287 13 18.5003 16.7903 18.5 20.7588C18.5 24.7754 21.8758 28 26 28C30.1713 28 33.4997 24.2097 33.5 20.2412C33.5 16.2246 30.1242 13 26 13Z" fill="#FF6200" fill-opacity="0.4" stroke="#FF6200"/>
</svg>
