<svg width="126" height="145" viewBox="0 0 126 145" fill="none" xmlns="http://www.w3.org/2000/svg">
<path d="M79.9135 41.4969C96.6088 12.1684 120.704 25.7508 103.219 73.2769" stroke="white"/>
<line x1="29.3807" y1="143.589" x2="49.5304" y2="131.115" stroke="white" stroke-linecap="round"/>
<path d="M79.21 50.1447C78.8796 50.1887 78.5492 50.2328 78.2188 50.2769C78.2603 50.5258 78.3019 50.7747 78.3435 51.0236C79.0922 55.5037 79.8409 59.9839 80.5896 64.4641C80.6312 64.713 80.6728 64.9619 80.7144 65.2108C80.6893 64.9597 80.6642 64.7086 80.6391 64.4575C80.1878 59.9376 79.7365 55.4178 79.2852 50.898C79.2601 50.6469 79.2351 50.3958 79.21 50.1447Z" fill="white"/>
<path d="M103.061 74.3837C103.188 74.3472 103.294 74.2618 103.353 74.1431C103.412 74.0246 103.421 73.8825 103.377 73.7512C103.333 73.6199 103.241 73.5111 103.123 73.4519C103.004 73.3925 102.868 73.3876 102.744 73.435C102.563 73.5043 102.381 73.5736 102.2 73.6429C98.9318 74.8903 95.6638 76.1377 92.3959 77.3852C92.2143 77.4545 92.0328 77.5238 91.8512 77.5931C92.038 77.5396 92.2249 77.4861 92.4117 77.4326C95.7745 76.4698 99.1373 75.507 102.5 74.5441C102.687 74.4906 102.874 74.4371 103.061 74.3837Z" fill="white"/>
<path d="M45.346 132.251C45.5954 132.268 45.8448 132.285 46.0942 132.302C46.2975 130.571 46.494 128.872 46.6843 127.204C47.4549 120.416 48.1595 113.607 48.8907 106.818C51.7963 83.9473 54.1505 56.439 75.8814 44.0052C77.3296 43.1443 78.8258 42.3533 80.3757 41.6162C80.2721 41.3887 80.1684 41.1612 80.0647 40.9338C78.4724 41.6291 76.9288 42.3836 75.4279 43.2149C52.6902 55.3651 49.7769 83.7632 46.9022 106.604C46.1675 113.426 45.7269 120.28 45.4875 127.115C45.4301 128.795 45.3831 130.507 45.346 132.251Z" fill="white"/>
<path d="M49.6952 130.597C49.8053 130.821 49.9155 131.045 50.0257 131.27C51.3887 130.693 52.7226 130.116 54.0276 129.537C59.3356 127.177 64.5425 124.618 69.614 121.797C78.4743 116.825 87.1852 111.554 94.9094 104.747C102.405 98.371 109.601 87.8213 105.381 77.6117C104.88 76.2165 104.266 74.9021 103.551 73.6018C103.33 73.7183 103.109 73.8348 102.887 73.9513C103.538 75.2477 104.085 76.5456 104.518 77.904C108.139 87.7645 101.231 97.2481 93.77 103.448C86.1133 109.959 77.4422 115.113 68.6417 120.05C63.604 122.851 58.5482 125.633 53.4904 128.464C52.248 129.161 50.983 129.871 49.6952 130.597Z" fill="white"/>
<path d="M86.0125 21.9273C86.1312 21.868 86.2214 21.764 86.2634 21.6382C86.3053 21.5124 86.2956 21.3751 86.2363 21.2565C86.1771 21.1379 86.0731 21.0477 85.9473 21.0057C85.8215 20.9637 85.6842 20.9734 85.5656 21.0327C85.5656 21.0327 85.5656 21.0327 85.5656 21.0327C83.6497 21.9906 81.8318 22.9749 80.0088 24.0539C76.8265 25.9395 73.8034 28.0182 70.9369 30.3854C59.7141 39.3809 52.8096 52.8258 49.7052 66.6685C48.0041 73.9008 46.6734 81.2679 46.0849 88.6478C45.1164 101.085 45.0631 113.566 45.1512 125.999C45.1683 128.097 45.191 130.157 45.219 132.29C45.2225 132.555 45.3312 132.808 45.5212 132.993C45.7112 133.178 45.9669 133.28 46.2321 133.276C46.4973 133.273 46.7502 133.164 46.9353 132.974C47.1203 132.784 47.2223 132.528 47.2188 132.263C47.2188 132.263 47.2188 132.263 47.2188 132.263C47.1909 130.134 47.1682 128.077 47.1512 125.983C47.0628 113.574 47.1181 101.135 48.0786 88.8057C48.6608 81.5019 49.1819 74.1075 50.8294 66.9303C53.8342 53.2196 60.5336 40.0144 71.5738 31.1563C74.395 28.8265 77.3751 26.7768 80.5183 24.9144C82.319 23.8486 84.1164 22.8753 86.0125 21.9273Z" fill="white"/>
<path d="M29.2192 143.277C3.04533 93.5379 27.1245 17.1755 73.4213 9.66647" stroke="white" stroke-linecap="round"/>
</svg>
