<svg width="66" height="53" viewBox="0 0 66 53" fill="none" xmlns="http://www.w3.org/2000/svg">
<mask id="path-1-outside-1_1930_14057" maskUnits="userSpaceOnUse" x="0" y="0" width="66" height="53" fill="black">
<rect fill="white" width="66" height="53"/>
<path d="M30.3763 2.36193C30.1267 2.37851 29.6025 2.38799 28.8038 2.39035C21.1626 2.42587 13.7067 4.5779 7.83763 9.40044C5.74101 11.1216 4.20064 12.8901 3.21652 14.706C0.827513 19.1201 0.481641 24.8447 1.64405 29.6743C2.91106 34.9254 5.8254 39.0637 10.3871 42.0894C14.4341 44.7705 18.9304 46.4858 23.6478 47.7145C24.0723 47.8231 24.4855 47.973 24.8816 48.1619C26.6181 48.9858 28.0907 49.7351 29.6239 50.2501C35.4716 52.2151 41.4703 52.5252 47.6199 51.1805C53.3927 49.9162 58.4488 45.4026 61.4832 40.5659C64.9134 35.1006 65.6301 28.4278 64.5105 22.0676C62.6492 11.4779 56.0384 3.76467 45.1168 1.60908C40.1225 0.62421 35.4277 0.833729 31.0324 2.23764C30.8192 2.30604 30.5989 2.34779 30.3763 2.36193ZM28.7503 39.7172C33.5236 43.0695 38.8459 44.1431 44.7174 42.9381C44.7833 42.9253 44.8518 42.936 44.911 42.9684C44.9702 43.0008 45.0165 43.0529 45.0419 43.1157L47.8089 50.1932C47.8221 50.2271 47.8277 50.2635 47.8255 50.2998C47.8232 50.3361 47.8131 50.3715 47.7958 50.4036C47.7786 50.4356 47.7545 50.4636 47.7254 50.4855C47.6962 50.5074 47.6627 50.5228 47.627 50.5306C39.0587 52.395 30.2337 51.0562 22.9882 46.1022C22.9656 46.087 22.9466 46.067 22.9325 46.0438C22.9184 46.0205 22.9096 45.9945 22.9065 45.9675C22.9035 45.9405 22.9063 45.9132 22.9149 45.8874C22.9234 45.8616 22.9375 45.838 22.9561 45.8181L28.4544 39.7527C28.4908 39.7117 28.541 39.6855 28.5956 39.679C28.6501 39.6724 28.7052 39.686 28.7503 39.7172ZM45.837 42.6291C51.8488 40.2392 55.7389 35.6901 56.1668 29.1558C56.3213 26.7765 56.269 24.5144 56.0099 22.3695C56.0025 22.3024 56.021 22.2351 56.0615 22.1815C56.102 22.128 56.1614 22.0923 56.2274 22.0818L63.3445 20.949C63.4257 20.9354 63.509 20.9537 63.5768 21.0001C63.6447 21.0464 63.6918 21.1173 63.7082 21.1976C65.0061 27.4974 64.5069 34.2092 61.2194 39.7704C58.6022 44.1952 54.0274 48.5774 48.9035 50.2074C48.8065 50.2388 48.7011 50.232 48.6089 50.1884C48.5167 50.1448 48.4448 50.0678 48.4079 49.9731L45.6802 42.9914C45.6532 42.9226 45.6545 42.846 45.6839 42.7782C45.7132 42.7103 45.7683 42.6568 45.837 42.6291ZM22.1717 46.4822C22.0766 46.5367 21.9482 46.5426 21.7866 46.5C17.9095 45.463 14.2475 43.8176 10.8007 41.5638C6.02032 38.434 3.10241 33.9997 2.04697 28.2609C1.13416 23.3034 1.86869 17.2096 4.98866 13.2357C10.4441 6.28603 19.6579 3.25685 28.3011 3.03312C28.3179 3.03236 28.3347 3.03588 28.3499 3.04335C28.365 3.05082 28.378 3.06201 28.3876 3.07585C28.3973 3.08969 28.4032 3.10574 28.4049 3.12249C28.4066 3.13924 28.404 3.15614 28.3973 3.17161C28.3569 3.27578 28.2808 3.35391 28.1691 3.40599C26.2698 4.31747 24.55 5.36982 23.0096 6.56303C22.9136 6.63772 22.7999 6.68884 22.678 6.71217C22.1895 6.80806 21.6439 6.63049 21.1376 6.71927C18.2613 7.22354 15.4159 8.2096 12.6014 9.67744C7.58447 12.2982 3.74067 17.483 3.74067 23.2715C3.74424 29.6139 5.97279 35.2888 11.3534 38.8045C12.8902 39.8095 14.6944 40.3315 16.6556 40.5233C16.6947 40.5265 16.7329 40.5383 16.7673 40.558C16.8018 40.5776 16.8318 40.6045 16.8552 40.6369C18.3956 42.8316 20.1725 44.7244 22.1859 46.3153C22.1992 46.3255 22.2097 46.3388 22.2165 46.354C22.2233 46.3693 22.2261 46.386 22.2246 46.4026C22.2232 46.4193 22.2176 46.4353 22.2084 46.4492C22.1991 46.4631 22.1865 46.4744 22.1717 46.4822ZM22.4961 45.3565C22.4411 45.4166 22.3651 45.4535 22.2841 45.4594C22.203 45.4654 22.1232 45.44 22.0611 45.3884C20.8203 44.3704 19.5746 43.0778 18.3243 41.5105C14.8335 37.1283 13.7923 30.6651 14.2095 25.2389C14.215 25.1597 14.2512 25.0858 14.3104 25.0328C14.3696 24.9798 14.4473 24.9518 14.5268 24.9548L22.7101 25.2282C22.7438 25.2296 22.7769 25.2376 22.8075 25.2517C22.8382 25.2658 22.8657 25.2858 22.8885 25.3106C22.9114 25.3353 22.9291 25.3643 22.9407 25.3958C22.9523 25.4274 22.9575 25.461 22.9561 25.4945C22.7778 30.6793 24.2576 35.3989 27.9445 38.9998C27.9886 39.0438 28.014 39.1031 28.0153 39.1653C28.0166 39.2275 27.9938 39.2878 27.9516 39.3336L22.4961 45.3565ZM30.8077 40.2392C25.4521 37.1354 23.2235 31.0238 23.6229 25.1536C23.9652 20.1251 26.1818 16.2081 30.2729 13.4027C33.8706 10.9346 37.7893 10.3025 42.0824 10.4907C43.3327 10.5451 44.4084 10.725 45.3093 11.0304C47.3608 11.7289 49.2339 12.8487 50.9288 14.3899C55.2718 18.3424 55.8994 23.3105 55.5392 28.9747C55.2326 33.8044 53.1122 37.5414 49.1781 40.1859C47.167 41.5377 45.0704 42.3498 42.8882 42.622C38.5096 43.1642 34.4827 42.3699 30.8077 40.2392ZM21.9078 7.47568C21.405 8.13266 20.7133 8.6831 20.0893 9.4324C14.5364 16.0968 12.4837 23.8219 13.9314 32.6076C14.3379 35.0864 15.108 37.4148 16.2419 39.5929C16.2546 39.6171 16.2604 39.6444 16.2585 39.6717C16.2567 39.699 16.2473 39.7253 16.2315 39.7477C16.2157 39.77 16.194 39.7876 16.1688 39.7985C16.1436 39.8094 16.1158 39.8132 16.0886 39.8095C14.0799 39.5396 12.2555 38.7713 10.6153 37.5047C5.9193 33.8719 4.18282 28.1615 4.44668 22.1528C4.49184 21.168 4.72004 20.1346 5.13128 19.0526C6.69305 14.964 9.42793 11.9561 13.3359 10.029C15.9674 8.73399 18.7866 7.82015 21.7937 7.28747C21.8173 7.28296 21.8418 7.28577 21.8637 7.29552C21.8857 7.30527 21.9041 7.32148 21.9166 7.34199C21.929 7.3625 21.9348 7.38631 21.9333 7.41021C21.9317 7.43412 21.9228 7.45696 21.9078 7.47568ZM29.1711 12.9872C29.1988 13.0185 29.2198 13.0552 29.2328 13.095C29.2457 13.1348 29.2503 13.1767 29.2463 13.2184C29.2423 13.26 29.2298 13.3003 29.2095 13.3369C29.1892 13.3735 29.1615 13.4056 29.1283 13.4311C25.5721 16.1466 23.5456 19.7214 23.0488 24.1557C23.0353 24.2832 22.9736 24.4007 22.8763 24.4845C22.7789 24.5682 22.6532 24.612 22.5247 24.6067L14.6766 24.344C14.627 24.3424 14.5782 24.3305 14.5335 24.3091C14.4887 24.2876 14.4491 24.2572 14.4171 24.2196C14.3852 24.1821 14.3616 24.1383 14.3479 24.0912C14.3343 24.0441 14.3308 23.9947 14.3379 23.9462C14.9702 19.1947 16.7043 14.9285 19.5402 11.1476C20.7953 9.47383 22.111 8.10188 23.4874 7.03178C23.5663 6.97032 23.6659 6.94156 23.7655 6.95148C23.8652 6.96141 23.9571 7.00925 24.0222 7.08504L29.1711 12.9872ZM51.9094 14.4076C50.0481 12.4663 47.7554 11.0565 45.0312 10.1782C44.9975 10.1668 44.9691 10.1435 44.9514 10.1128C44.9337 10.0821 44.9278 10.046 44.9349 10.0113L46.5787 2.94078C46.5874 2.90273 46.6038 2.86683 46.6268 2.83527C46.6499 2.80371 46.6791 2.77716 46.7128 2.75723C46.7465 2.7373 46.7839 2.7244 46.8228 2.71932C46.8616 2.71425 46.9011 2.7171 46.9388 2.72771C51.239 3.94223 54.8023 6.02442 57.6287 8.97429C60.4528 11.9265 62.3723 15.5701 63.3873 19.9049C63.3962 19.9428 63.3972 19.982 63.3904 20.0202C63.3837 20.0585 63.3692 20.095 63.3478 20.1275C63.3265 20.16 63.2988 20.1879 63.2664 20.2094C63.2339 20.231 63.1974 20.2458 63.1591 20.253L55.9885 21.5527C55.9533 21.5585 55.9171 21.5512 55.8869 21.5322C55.8567 21.5132 55.8345 21.4839 55.8245 21.4497C55.0757 18.6987 53.7707 16.3513 51.9094 14.4076ZM29.6738 12.6214L24.4965 6.68731C24.4791 6.66755 24.4661 6.6444 24.4582 6.61933C24.4504 6.59426 24.4479 6.56782 24.4509 6.54173C24.4539 6.51564 24.4624 6.49047 24.4758 6.46784C24.4891 6.44521 24.5071 6.42561 24.5286 6.41032C30.9254 1.90738 37.9997 0.591064 45.7515 2.46137C45.8217 2.47825 45.8824 2.52201 45.9204 2.58317C45.9585 2.64433 45.9708 2.71795 45.9547 2.78809L44.3395 9.72715C44.3199 9.81266 44.2695 9.88807 44.1979 9.93911C44.1263 9.99015 44.0384 10.0133 43.9508 10.0041C38.9802 9.48566 34.4233 9.89406 30.1516 12.6853C30.0779 12.7346 29.9886 12.7553 29.9006 12.7435C29.8126 12.7317 29.7319 12.6883 29.6738 12.6214Z"/>
</mask>
<path d="M30.3763 2.36193C30.1267 2.37851 29.6025 2.38799 28.8038 2.39035C21.1626 2.42587 13.7067 4.5779 7.83763 9.40044C5.74101 11.1216 4.20064 12.8901 3.21652 14.706C0.827513 19.1201 0.481641 24.8447 1.64405 29.6743C2.91106 34.9254 5.8254 39.0637 10.3871 42.0894C14.4341 44.7705 18.9304 46.4858 23.6478 47.7145C24.0723 47.8231 24.4855 47.973 24.8816 48.1619C26.6181 48.9858 28.0907 49.7351 29.6239 50.2501C35.4716 52.2151 41.4703 52.5252 47.6199 51.1805C53.3927 49.9162 58.4488 45.4026 61.4832 40.5659C64.9134 35.1006 65.6301 28.4278 64.5105 22.0676C62.6492 11.4779 56.0384 3.76467 45.1168 1.60908C40.1225 0.62421 35.4277 0.833729 31.0324 2.23764C30.8192 2.30604 30.5989 2.34779 30.3763 2.36193ZM28.7503 39.7172C33.5236 43.0695 38.8459 44.1431 44.7174 42.9381C44.7833 42.9253 44.8518 42.936 44.911 42.9684C44.9702 43.0008 45.0165 43.0529 45.0419 43.1157L47.8089 50.1932C47.8221 50.2271 47.8277 50.2635 47.8255 50.2998C47.8232 50.3361 47.8131 50.3715 47.7958 50.4036C47.7786 50.4356 47.7545 50.4636 47.7254 50.4855C47.6962 50.5074 47.6627 50.5228 47.627 50.5306C39.0587 52.395 30.2337 51.0562 22.9882 46.1022C22.9656 46.087 22.9466 46.067 22.9325 46.0438C22.9184 46.0205 22.9096 45.9945 22.9065 45.9675C22.9035 45.9405 22.9063 45.9132 22.9149 45.8874C22.9234 45.8616 22.9375 45.838 22.9561 45.8181L28.4544 39.7527C28.4908 39.7117 28.541 39.6855 28.5956 39.679C28.6501 39.6724 28.7052 39.686 28.7503 39.7172ZM45.837 42.6291C51.8488 40.2392 55.7389 35.6901 56.1668 29.1558C56.3213 26.7765 56.269 24.5144 56.0099 22.3695C56.0025 22.3024 56.021 22.2351 56.0615 22.1815C56.102 22.128 56.1614 22.0923 56.2274 22.0818L63.3445 20.949C63.4257 20.9354 63.509 20.9537 63.5768 21.0001C63.6447 21.0464 63.6918 21.1173 63.7082 21.1976C65.0061 27.4974 64.5069 34.2092 61.2194 39.7704C58.6022 44.1952 54.0274 48.5774 48.9035 50.2074C48.8065 50.2388 48.7011 50.232 48.6089 50.1884C48.5167 50.1448 48.4448 50.0678 48.4079 49.9731L45.6802 42.9914C45.6532 42.9226 45.6545 42.846 45.6839 42.7782C45.7132 42.7103 45.7683 42.6568 45.837 42.6291ZM22.1717 46.4822C22.0766 46.5367 21.9482 46.5426 21.7866 46.5C17.9095 45.463 14.2475 43.8176 10.8007 41.5638C6.02032 38.434 3.10241 33.9997 2.04697 28.2609C1.13416 23.3034 1.86869 17.2096 4.98866 13.2357C10.4441 6.28603 19.6579 3.25685 28.3011 3.03312C28.3179 3.03236 28.3347 3.03588 28.3499 3.04335C28.365 3.05082 28.378 3.06201 28.3876 3.07585C28.3973 3.08969 28.4032 3.10574 28.4049 3.12249C28.4066 3.13924 28.404 3.15614 28.3973 3.17161C28.3569 3.27578 28.2808 3.35391 28.1691 3.40599C26.2698 4.31747 24.55 5.36982 23.0096 6.56303C22.9136 6.63772 22.7999 6.68884 22.678 6.71217C22.1895 6.80806 21.6439 6.63049 21.1376 6.71927C18.2613 7.22354 15.4159 8.2096 12.6014 9.67744C7.58447 12.2982 3.74067 17.483 3.74067 23.2715C3.74424 29.6139 5.97279 35.2888 11.3534 38.8045C12.8902 39.8095 14.6944 40.3315 16.6556 40.5233C16.6947 40.5265 16.7329 40.5383 16.7673 40.558C16.8018 40.5776 16.8318 40.6045 16.8552 40.6369C18.3956 42.8316 20.1725 44.7244 22.1859 46.3153C22.1992 46.3255 22.2097 46.3388 22.2165 46.354C22.2233 46.3693 22.2261 46.386 22.2246 46.4026C22.2232 46.4193 22.2176 46.4353 22.2084 46.4492C22.1991 46.4631 22.1865 46.4744 22.1717 46.4822ZM22.4961 45.3565C22.4411 45.4166 22.3651 45.4535 22.2841 45.4594C22.203 45.4654 22.1232 45.44 22.0611 45.3884C20.8203 44.3704 19.5746 43.0778 18.3243 41.5105C14.8335 37.1283 13.7923 30.6651 14.2095 25.2389C14.215 25.1597 14.2512 25.0858 14.3104 25.0328C14.3696 24.9798 14.4473 24.9518 14.5268 24.9548L22.7101 25.2282C22.7438 25.2296 22.7769 25.2376 22.8075 25.2517C22.8382 25.2658 22.8657 25.2858 22.8885 25.3106C22.9114 25.3353 22.9291 25.3643 22.9407 25.3958C22.9523 25.4274 22.9575 25.461 22.9561 25.4945C22.7778 30.6793 24.2576 35.3989 27.9445 38.9998C27.9886 39.0438 28.014 39.1031 28.0153 39.1653C28.0166 39.2275 27.9938 39.2878 27.9516 39.3336L22.4961 45.3565ZM30.8077 40.2392C25.4521 37.1354 23.2235 31.0238 23.6229 25.1536C23.9652 20.1251 26.1818 16.2081 30.2729 13.4027C33.8706 10.9346 37.7893 10.3025 42.0824 10.4907C43.3327 10.5451 44.4084 10.725 45.3093 11.0304C47.3608 11.7289 49.2339 12.8487 50.9288 14.3899C55.2718 18.3424 55.8994 23.3105 55.5392 28.9747C55.2326 33.8044 53.1122 37.5414 49.1781 40.1859C47.167 41.5377 45.0704 42.3498 42.8882 42.622C38.5096 43.1642 34.4827 42.3699 30.8077 40.2392ZM21.9078 7.47568C21.405 8.13266 20.7133 8.6831 20.0893 9.4324C14.5364 16.0968 12.4837 23.8219 13.9314 32.6076C14.3379 35.0864 15.108 37.4148 16.2419 39.5929C16.2546 39.6171 16.2604 39.6444 16.2585 39.6717C16.2567 39.699 16.2473 39.7253 16.2315 39.7477C16.2157 39.77 16.194 39.7876 16.1688 39.7985C16.1436 39.8094 16.1158 39.8132 16.0886 39.8095C14.0799 39.5396 12.2555 38.7713 10.6153 37.5047C5.9193 33.8719 4.18282 28.1615 4.44668 22.1528C4.49184 21.168 4.72004 20.1346 5.13128 19.0526C6.69305 14.964 9.42793 11.9561 13.3359 10.029C15.9674 8.73399 18.7866 7.82015 21.7937 7.28747C21.8173 7.28296 21.8418 7.28577 21.8637 7.29552C21.8857 7.30527 21.9041 7.32148 21.9166 7.34199C21.929 7.3625 21.9348 7.38631 21.9333 7.41021C21.9317 7.43412 21.9228 7.45696 21.9078 7.47568ZM29.1711 12.9872C29.1988 13.0185 29.2198 13.0552 29.2328 13.095C29.2457 13.1348 29.2503 13.1767 29.2463 13.2184C29.2423 13.26 29.2298 13.3003 29.2095 13.3369C29.1892 13.3735 29.1615 13.4056 29.1283 13.4311C25.5721 16.1466 23.5456 19.7214 23.0488 24.1557C23.0353 24.2832 22.9736 24.4007 22.8763 24.4845C22.7789 24.5682 22.6532 24.612 22.5247 24.6067L14.6766 24.344C14.627 24.3424 14.5782 24.3305 14.5335 24.3091C14.4887 24.2876 14.4491 24.2572 14.4171 24.2196C14.3852 24.1821 14.3616 24.1383 14.3479 24.0912C14.3343 24.0441 14.3308 23.9947 14.3379 23.9462C14.9702 19.1947 16.7043 14.9285 19.5402 11.1476C20.7953 9.47383 22.111 8.10188 23.4874 7.03178C23.5663 6.97032 23.6659 6.94156 23.7655 6.95148C23.8652 6.96141 23.9571 7.00925 24.0222 7.08504L29.1711 12.9872ZM51.9094 14.4076C50.0481 12.4663 47.7554 11.0565 45.0312 10.1782C44.9975 10.1668 44.9691 10.1435 44.9514 10.1128C44.9337 10.0821 44.9278 10.046 44.9349 10.0113L46.5787 2.94078C46.5874 2.90273 46.6038 2.86683 46.6268 2.83527C46.6499 2.80371 46.6791 2.77716 46.7128 2.75723C46.7465 2.7373 46.7839 2.7244 46.8228 2.71932C46.8616 2.71425 46.9011 2.7171 46.9388 2.72771C51.239 3.94223 54.8023 6.02442 57.6287 8.97429C60.4528 11.9265 62.3723 15.5701 63.3873 19.9049C63.3962 19.9428 63.3972 19.982 63.3904 20.0202C63.3837 20.0585 63.3692 20.095 63.3478 20.1275C63.3265 20.16 63.2988 20.1879 63.2664 20.2094C63.2339 20.231 63.1974 20.2458 63.1591 20.253L55.9885 21.5527C55.9533 21.5585 55.9171 21.5512 55.8869 21.5322C55.8567 21.5132 55.8345 21.4839 55.8245 21.4497C55.0757 18.6987 53.7707 16.3513 51.9094 14.4076ZM29.6738 12.6214L24.4965 6.68731C24.4791 6.66755 24.4661 6.6444 24.4582 6.61933C24.4504 6.59426 24.4479 6.56782 24.4509 6.54173C24.4539 6.51564 24.4624 6.49047 24.4758 6.46784C24.4891 6.44521 24.5071 6.42561 24.5286 6.41032C30.9254 1.90738 37.9997 0.591064 45.7515 2.46137C45.8217 2.47825 45.8824 2.52201 45.9204 2.58317C45.9585 2.64433 45.9708 2.71795 45.9547 2.78809L44.3395 9.72715C44.3199 9.81266 44.2695 9.88807 44.1979 9.93911C44.1263 9.99015 44.0384 10.0133 43.9508 10.0041C38.9802 9.48566 34.4233 9.89406 30.1516 12.6853C30.0779 12.7346 29.9886 12.7553 29.9006 12.7435C29.8126 12.7317 29.7319 12.6883 29.6738 12.6214Z" fill="#F62C2C"/>
<path d="M30.3763 2.36193C30.1267 2.37851 29.6025 2.38799 28.8038 2.39035C21.1626 2.42587 13.7067 4.5779 7.83763 9.40044C5.74101 11.1216 4.20064 12.8901 3.21652 14.706C0.827513 19.1201 0.481641 24.8447 1.64405 29.6743C2.91106 34.9254 5.8254 39.0637 10.3871 42.0894C14.4341 44.7705 18.9304 46.4858 23.6478 47.7145C24.0723 47.8231 24.4855 47.973 24.8816 48.1619C26.6181 48.9858 28.0907 49.7351 29.6239 50.2501C35.4716 52.2151 41.4703 52.5252 47.6199 51.1805C53.3927 49.9162 58.4488 45.4026 61.4832 40.5659C64.9134 35.1006 65.6301 28.4278 64.5105 22.0676C62.6492 11.4779 56.0384 3.76467 45.1168 1.60908C40.1225 0.62421 35.4277 0.833729 31.0324 2.23764C30.8192 2.30604 30.5989 2.34779 30.3763 2.36193ZM28.7503 39.7172C33.5236 43.0695 38.8459 44.1431 44.7174 42.9381C44.7833 42.9253 44.8518 42.936 44.911 42.9684C44.9702 43.0008 45.0165 43.0529 45.0419 43.1157L47.8089 50.1932C47.8221 50.2271 47.8277 50.2635 47.8255 50.2998C47.8232 50.3361 47.8131 50.3715 47.7958 50.4036C47.7786 50.4356 47.7545 50.4636 47.7254 50.4855C47.6962 50.5074 47.6627 50.5228 47.627 50.5306C39.0587 52.395 30.2337 51.0562 22.9882 46.1022C22.9656 46.087 22.9466 46.067 22.9325 46.0438C22.9184 46.0205 22.9096 45.9945 22.9065 45.9675C22.9035 45.9405 22.9063 45.9132 22.9149 45.8874C22.9234 45.8616 22.9375 45.838 22.9561 45.8181L28.4544 39.7527C28.4908 39.7117 28.541 39.6855 28.5956 39.679C28.6501 39.6724 28.7052 39.686 28.7503 39.7172ZM45.837 42.6291C51.8488 40.2392 55.7389 35.6901 56.1668 29.1558C56.3213 26.7765 56.269 24.5144 56.0099 22.3695C56.0025 22.3024 56.021 22.2351 56.0615 22.1815C56.102 22.128 56.1614 22.0923 56.2274 22.0818L63.3445 20.949C63.4257 20.9354 63.509 20.9537 63.5768 21.0001C63.6447 21.0464 63.6918 21.1173 63.7082 21.1976C65.0061 27.4974 64.5069 34.2092 61.2194 39.7704C58.6022 44.1952 54.0274 48.5774 48.9035 50.2074C48.8065 50.2388 48.7011 50.232 48.6089 50.1884C48.5167 50.1448 48.4448 50.0678 48.4079 49.9731L45.6802 42.9914C45.6532 42.9226 45.6545 42.846 45.6839 42.7782C45.7132 42.7103 45.7683 42.6568 45.837 42.6291ZM22.1717 46.4822C22.0766 46.5367 21.9482 46.5426 21.7866 46.5C17.9095 45.463 14.2475 43.8176 10.8007 41.5638C6.02032 38.434 3.10241 33.9997 2.04697 28.2609C1.13416 23.3034 1.86869 17.2096 4.98866 13.2357C10.4441 6.28603 19.6579 3.25685 28.3011 3.03312C28.3179 3.03236 28.3347 3.03588 28.3499 3.04335C28.365 3.05082 28.378 3.06201 28.3876 3.07585C28.3973 3.08969 28.4032 3.10574 28.4049 3.12249C28.4066 3.13924 28.404 3.15614 28.3973 3.17161C28.3569 3.27578 28.2808 3.35391 28.1691 3.40599C26.2698 4.31747 24.55 5.36982 23.0096 6.56303C22.9136 6.63772 22.7999 6.68884 22.678 6.71217C22.1895 6.80806 21.6439 6.63049 21.1376 6.71927C18.2613 7.22354 15.4159 8.2096 12.6014 9.67744C7.58447 12.2982 3.74067 17.483 3.74067 23.2715C3.74424 29.6139 5.97279 35.2888 11.3534 38.8045C12.8902 39.8095 14.6944 40.3315 16.6556 40.5233C16.6947 40.5265 16.7329 40.5383 16.7673 40.558C16.8018 40.5776 16.8318 40.6045 16.8552 40.6369C18.3956 42.8316 20.1725 44.7244 22.1859 46.3153C22.1992 46.3255 22.2097 46.3388 22.2165 46.354C22.2233 46.3693 22.2261 46.386 22.2246 46.4026C22.2232 46.4193 22.2176 46.4353 22.2084 46.4492C22.1991 46.4631 22.1865 46.4744 22.1717 46.4822ZM22.4961 45.3565C22.4411 45.4166 22.3651 45.4535 22.2841 45.4594C22.203 45.4654 22.1232 45.44 22.0611 45.3884C20.8203 44.3704 19.5746 43.0778 18.3243 41.5105C14.8335 37.1283 13.7923 30.6651 14.2095 25.2389C14.215 25.1597 14.2512 25.0858 14.3104 25.0328C14.3696 24.9798 14.4473 24.9518 14.5268 24.9548L22.7101 25.2282C22.7438 25.2296 22.7769 25.2376 22.8075 25.2517C22.8382 25.2658 22.8657 25.2858 22.8885 25.3106C22.9114 25.3353 22.9291 25.3643 22.9407 25.3958C22.9523 25.4274 22.9575 25.461 22.9561 25.4945C22.7778 30.6793 24.2576 35.3989 27.9445 38.9998C27.9886 39.0438 28.014 39.1031 28.0153 39.1653C28.0166 39.2275 27.9938 39.2878 27.9516 39.3336L22.4961 45.3565ZM30.8077 40.2392C25.4521 37.1354 23.2235 31.0238 23.6229 25.1536C23.9652 20.1251 26.1818 16.2081 30.2729 13.4027C33.8706 10.9346 37.7893 10.3025 42.0824 10.4907C43.3327 10.5451 44.4084 10.725 45.3093 11.0304C47.3608 11.7289 49.2339 12.8487 50.9288 14.3899C55.2718 18.3424 55.8994 23.3105 55.5392 28.9747C55.2326 33.8044 53.1122 37.5414 49.1781 40.1859C47.167 41.5377 45.0704 42.3498 42.8882 42.622C38.5096 43.1642 34.4827 42.3699 30.8077 40.2392ZM21.9078 7.47568C21.405 8.13266 20.7133 8.6831 20.0893 9.4324C14.5364 16.0968 12.4837 23.8219 13.9314 32.6076C14.3379 35.0864 15.108 37.4148 16.2419 39.5929C16.2546 39.6171 16.2604 39.6444 16.2585 39.6717C16.2567 39.699 16.2473 39.7253 16.2315 39.7477C16.2157 39.77 16.194 39.7876 16.1688 39.7985C16.1436 39.8094 16.1158 39.8132 16.0886 39.8095C14.0799 39.5396 12.2555 38.7713 10.6153 37.5047C5.9193 33.8719 4.18282 28.1615 4.44668 22.1528C4.49184 21.168 4.72004 20.1346 5.13128 19.0526C6.69305 14.964 9.42793 11.9561 13.3359 10.029C15.9674 8.73399 18.7866 7.82015 21.7937 7.28747C21.8173 7.28296 21.8418 7.28577 21.8637 7.29552C21.8857 7.30527 21.9041 7.32148 21.9166 7.34199C21.929 7.3625 21.9348 7.38631 21.9333 7.41021C21.9317 7.43412 21.9228 7.45696 21.9078 7.47568ZM29.1711 12.9872C29.1988 13.0185 29.2198 13.0552 29.2328 13.095C29.2457 13.1348 29.2503 13.1767 29.2463 13.2184C29.2423 13.26 29.2298 13.3003 29.2095 13.3369C29.1892 13.3735 29.1615 13.4056 29.1283 13.4311C25.5721 16.1466 23.5456 19.7214 23.0488 24.1557C23.0353 24.2832 22.9736 24.4007 22.8763 24.4845C22.7789 24.5682 22.6532 24.612 22.5247 24.6067L14.6766 24.344C14.627 24.3424 14.5782 24.3305 14.5335 24.3091C14.4887 24.2876 14.4491 24.2572 14.4171 24.2196C14.3852 24.1821 14.3616 24.1383 14.3479 24.0912C14.3343 24.0441 14.3308 23.9947 14.3379 23.9462C14.9702 19.1947 16.7043 14.9285 19.5402 11.1476C20.7953 9.47383 22.111 8.10188 23.4874 7.03178C23.5663 6.97032 23.6659 6.94156 23.7655 6.95148C23.8652 6.96141 23.9571 7.00925 24.0222 7.08504L29.1711 12.9872ZM51.9094 14.4076C50.0481 12.4663 47.7554 11.0565 45.0312 10.1782C44.9975 10.1668 44.9691 10.1435 44.9514 10.1128C44.9337 10.0821 44.9278 10.046 44.9349 10.0113L46.5787 2.94078C46.5874 2.90273 46.6038 2.86683 46.6268 2.83527C46.6499 2.80371 46.6791 2.77716 46.7128 2.75723C46.7465 2.7373 46.7839 2.7244 46.8228 2.71932C46.8616 2.71425 46.9011 2.7171 46.9388 2.72771C51.239 3.94223 54.8023 6.02442 57.6287 8.97429C60.4528 11.9265 62.3723 15.5701 63.3873 19.9049C63.3962 19.9428 63.3972 19.982 63.3904 20.0202C63.3837 20.0585 63.3692 20.095 63.3478 20.1275C63.3265 20.16 63.2988 20.1879 63.2664 20.2094C63.2339 20.231 63.1974 20.2458 63.1591 20.253L55.9885 21.5527C55.9533 21.5585 55.9171 21.5512 55.8869 21.5322C55.8567 21.5132 55.8345 21.4839 55.8245 21.4497C55.0757 18.6987 53.7707 16.3513 51.9094 14.4076ZM29.6738 12.6214L24.4965 6.68731C24.4791 6.66755 24.4661 6.6444 24.4582 6.61933C24.4504 6.59426 24.4479 6.56782 24.4509 6.54173C24.4539 6.51564 24.4624 6.49047 24.4758 6.46784C24.4891 6.44521 24.5071 6.42561 24.5286 6.41032C30.9254 1.90738 37.9997 0.591064 45.7515 2.46137C45.8217 2.47825 45.8824 2.52201 45.9204 2.58317C45.9585 2.64433 45.9708 2.71795 45.9547 2.78809L44.3395 9.72715C44.3199 9.81266 44.2695 9.88807 44.1979 9.93911C44.1263 9.99015 44.0384 10.0133 43.9508 10.0041C38.9802 9.48566 34.4233 9.89406 30.1516 12.6853C30.0779 12.7346 29.9886 12.7553 29.9006 12.7435C29.8126 12.7317 29.7319 12.6883 29.6738 12.6214Z" stroke="#F62C2C" stroke-width="2" mask="url(#path-1-outside-1_1930_14057)"/>
</svg>
